<svg version="1.1" id="Capa_1" xmlns="http://www.w3.org/2000/svg" xmlns:xlink="http://www.w3.org/1999/xlink" x="0px" y="0px" viewBox="0 0 1200 1200" enable-background="new 0 0 1200 1200" xml:space="preserve">
<g>
	<path fill="#FFFFFF" d="M982.947,169.342c2.845,3.879,4.943,7.903,3.707,13.535c-9.483-4.023-16.725-10.949-25.288-15.719&#xA;&#9;&#9;c-8.592-4.77-17.185-9.569-26.438-14.742c0.172-10.748,1.925-21.351,6.006-32.76c2.787,2.414,4.77,3.879,6.437,5.632&#xA;&#9;&#9;C960.418,138.996,971.74,154.14,982.947,169.342z" style="fill: rgb(255, 255, 255);"/>
	<path fill="#FFFFFF" d="M723.913,140.031c12.414,4.971,15.978,7.328,20.432,14.627c-14.397,9.828-28.823,19.685-43.536,29.743&#xA;&#9;&#9;c-3.65-4.799-3.19-10.173-4.454-15.001c-1.437-5.403-2.644-10.834-4.167-16.179c-1.379-4.828-5.345-8.937-3.592-16.466&#xA;&#9;&#9;C700.895,134.283,712.476,135.49,723.913,140.031z" style="fill: rgb(255, 255, 255);"/>
	<path fill="#FFFFFF" d="M780.439,448.981c0.316,2.012,0.374,4.052,0.747,8.276c-2.845-2.845-4.914-3.937-5.345-5.489&#xA;&#9;&#9;c-2.27-8.305-4.368-16.639-6.092-25.059c-1.466-7.184-3.017-13.937-7.184-20.403c-3.333-5.201-4.339-12.041-5.834-18.277&#xA;&#9;&#9;c-0.862-3.65,1.609-6.782,5.288-7.701c8.276-2.098,15.116,0.345,21.208,6.811c-2.04,7.472-3.448,13.736-5.518,19.8&#xA;&#9;&#9;c-2.328,6.811-2.012,13.564-0.92,20.403C777.967,434.555,779.26,441.768,780.439,448.981z" style="fill: rgb(255, 255, 255);"/>
	<path fill="#FFFFFF" d="M895.099,266.53c1.667-0.316,3.707,1.264,6.38,2.299c-3.994,3.994-7.242,7.242-10.949,10.949&#xA;&#9;&#9;c0.575,7.155,1.695,14.799,1.667,22.443c-0.057,14.311-4.655,26.869-15.518,36.841c-7.5,6.897-15.949,8.046-25.116,4.77&#xA;&#9;&#9;c-8.305-2.96-11.897-9.196-10.863-18.133c1.322-11.409,5.776-21.495,12.989-30.404c8.219-10.144,18.392-18.104,29.312-25.001&#xA;&#9;&#9;C886.478,268.111,890.961,267.277,895.099,266.53z" style="fill: rgb(255, 255, 255);"/>
	<path fill="#FFFFFF" d="M730.896,277.623c14.742,16.38,19.857,35.892,17.443,57.531c-0.603,5.489-3.333,7.673-8.679,7.155&#xA;&#9;&#9;c-8.305-0.833-14.455-4.54-18.133-12.529c-5.92-12.788-6.552-25.719-2.529-39.053c0.718-2.414,1.667-4.799,2.5-7.184&#xA;&#9;&#9;c-2.787-5.173-5.431-10.058-8.65-16.035c3.132,0.517,5.46,0.287,6.954,1.293C723.741,271.444,727.764,274.146,730.896,277.623z" style="fill: rgb(255, 255, 255);"/>
	<path fill="#191E33" d="M1103.01,367.856c-2.672-21.035-7.069-41.697-16.667-60.865c-9.282-18.564-12.07-38.392-12.702-58.882&#xA;&#9;&#9;c-1.149-37.76-13.564-71.785-36.151-102.016c-9.8-13.133-19.973-25.978-30.26-38.737c-3.765-4.684-7.931-9.138-12.501-13.075&#xA;&#9;&#9;c-16.753-14.397-35.145-26.208-55.434-35.318c-17.472-7.845-35.375-10.46-54.197-8.161c-11.122,1.379-17.961,8.88-17.328,20.202&#xA;&#9;&#9;c0.287,5.546,1.638,11.064,2.874,16.524c2.701,12.127,3.535,33.91,1.466,46.295c-11.523-1.178-23.076-3.018-34.628-3.42&#xA;&#9;&#9;c-11.523-0.374-23.076,0.718-34.312,1.149c-9.943-19.828-20.03-29.8-39.916-39.341c-5.029-2.443-10.144-4.828-15.46-6.552&#xA;&#9;&#9;c-26.266-8.477-52.646-16.667-78.911-25.087c-7.299-2.328-14.512-1.58-21.754-0.144c-3.592,0.718-5.316,2.759-5.202,6.322&#xA;&#9;&#9;c0.374,14.196,0.058,28.536,1.609,42.617c3.276,29.599,7.644,59.054,11.408,88.567c1.092,8.564,1.696,17.185,6.868,24.225&#xA;&#9;&#9;c-1.034,3.132-1.552,5.719-2.73,7.96c-4.109,7.817-5.316,16.294-6.61,24.857c-5.92,38.852-9.023,77.992-11.638,117.189&#xA;&#9;&#9;c-0.431,6.437-0.862,13.018-0.029,19.34c2.529,19.311,6.983,38.191,15.116,56.008c7.874,17.271,15.748,34.513,23.564,51.784&#xA;&#9;&#9;c7.673,16.897,15.058,33.852,18.392,52.33c2.127,11.868,4.828,23.651,7.443,35.461c4.799,21.84,4.971,43.795-0.891,65.29&#xA;&#9;&#9;c-5.316,19.541-12.156,38.651-18.679,57.847c-4.799,14.081-13.161,26.036-23.248,36.927&#xA;&#9;&#9;c-11.466,12.357-23.335,24.139-37.387,33.622c-10.259,6.926-21.064,11.667-33.766,11.064c-3.88-0.201-7.759-0.029-11.639-0.086&#xA;&#9;&#9;c-7.501-0.115-14.397-2.184-20.863-6.035c-10.604-6.293-19.081-14.857-25.949-24.886c-10-14.598-20.029-29.197-29.168-44.312&#xA;&#9;&#9;c-13.593-22.501-26.295-45.519-39.628-68.193c-14.282-24.311-30.777-46.87-52.215-65.491c-10.834-9.426-22.875-16.955-36.496-21.61&#xA;&#9;&#9;c-20.662-7.069-39.053-2.902-55.261,11.61c-8.765,7.845-15.518,17.271-21.639,27.243c-12.759,20.834-20.748,43.536-26.553,67.1&#xA;&#9;&#9;c-7.903,32.013-11.408,64.572-11.265,97.475c0.086,24.168,1.207,48.307,1.293,72.474c0.115,23.306-0.201,46.582-0.948,69.859&#xA;&#9;&#9;c-0.546,17.328-3.477,34.427-9.426,50.72c-3.391,9.282-7.27,18.535-12.385,26.955c-10.547,17.328-26.61,27.875-45.807,33.766&#xA;&#9;&#9;c-9.224,2.845-18.104,1.839-25.719-4.311c-5.69-4.598-11.294-9.426-16.035-14.914c-18.421-21.38-33.565-44.801-44.255-71.066&#xA;&#9;&#9;c-3.477-8.506-5.776-17.156-6.925-26.151c-0.718-5.575-1.207-11.15-2.126-16.696c-1.868-11.495,0.431-22.357,5.259-32.703&#xA;&#9;&#9;c3.449-7.385,10.202-12.845,17.875-15.518c8.707-3.046,18.593-2.529,26.121,2.816c10.834,7.73,20.576,17.041,27.272,28.967&#xA;&#9;&#9;c9.483,16.869,13.535,35.433,16.093,54.255c0.891,6.667-0.603,13.708-1.351,20.547c-0.546,4.828-2.96,8.966-6.064,12.702&#xA;&#9;&#9;c-2.27,2.73-5.029,3.592-7.903,1.494c-4.828-3.535-10.087-6.954-13.736-11.552c-9.138-11.495-16.495-24.254-22.3-37.732&#xA;&#9;&#9;c-2.529-5.891-3.822-12.328-5.172-18.621c-0.489-2.213,0.546-4.77,0.804-6.667c4.684-2.04,7.673-0.604,10.029,2.299&#xA;&#9;&#9;c2.155,2.673,4.138,5.517,5.948,8.449c4.024,6.552,7.874,13.219,11.811,19.8c-0.862-11.466-6.15-21.208-12.156-30.519&#xA;&#9;&#9;c-1.408-2.184-4.885-4.023-7.558-4.224c-13.736-1.121-19.052,2.759-15.805,16.782c2.299,9.857,7.213,18.449,12.098,27.041&#xA;&#9;&#9;c3.851,6.811,7.012,13.794,9.023,21.38c1.293,4.971,3.018,9.914,5.173,14.598c4.799,10.403,13.966,13.679,24.541,13.248&#xA;&#9;&#9;c11.236-0.431,21.352-3.592,26.725-14.857c0.718-1.552,1.351-3.219,1.638-4.914c0.891-5.086,2.155-10.173,2.242-15.317&#xA;&#9;&#9;c0.374-22.616-3.678-44.628-10.546-66.123c-1.408-4.454-3.334-9.138-6.236-12.673c-9.196-11.064-20.374-19.943-33.651-25.633&#xA;&#9;&#9;c-13.679-5.862-26.553-5.23-38.881-0.891c-6.379,2.241-12.615,5.46-18.736,9.282c-1.781,1.092-3.333,2.845-4.454,4.627&#xA;&#9;&#9;c-7.702,12.443-12.299,25.633-9.224,40.548c0.69,3.362,1.983,6.839,1.609,10.115c-0.891,8.046,1.437,15.432,3.822,22.788&#xA;&#9;&#9;c12.874,39.599,34.369,74.17,61.612,105.349c6.581,7.529,14.34,13.708,22.587,19.282c17.817,11.983,36.582,14.282,56.525,5.719&#xA;&#9;&#9;c22.673-9.684,40.03-25.059,51.238-47.157c6.868-13.564,11.954-27.789,14.483-42.76c2.644-15.719,4.684-31.553,6.523-47.416&#xA;&#9;&#9;c1.782-15.317,2.988-30.633,5.891-45.921c5.834-30.72,17.472-58.594,35.174-84.027c4.167-5.977,9.196-11.495,14.627-16.323&#xA;&#9;&#9;c7.357-6.523,15.604-6.868,23.823-1.408c4.253,2.816,8.161,6.408,11.524,10.259c3.649,4.196,6.609,9.052,9.626,13.765&#xA;&#9;&#9;c14.053,21.897,24.455,45.49,33.162,69.974c11.552,32.501,23.535,64.859,35.748,97.102c9.34,24.685,21.323,48.077,36.439,69.802&#xA;&#9;&#9;c10.086,14.483,22.242,27.472,30.978,42.933c1.437,2.586,3.995,4.512,6.006,6.753c3.736,4.196,7.299,8.535,11.207,12.558&#xA;&#9;&#9;c3.879,3.995,7.73,8.104,12.156,11.438c19.369,14.656,40.893,25.604,63.049,35.318c5.517,2.385,11.322,4.368,17.185,5.661&#xA;&#9;&#9;c24.886,5.374,49.83,9.742,75.521,10c27.817,0.287,54.973-4.397,82.302-8.247c2.529-0.345,5.058-1.063,7.501-1.925&#xA;&#9;&#9;c29.714-10.518,59.026-21.869,85.55-39.398c9.713-6.466,19.34-13.018,27.673-21.208c11.035-10.92,22.128-21.811,32.875-33.019&#xA;&#9;&#9;c25.835-26.955,47.043-57.071,63.538-90.751c21.696-44.312,40.347-89.688,51.87-137.736c5.747-23.88,11.006-47.962,15.317-72.129&#xA;&#9;&#9;c13.506-75.837,18.449-152.449,19.34-229.349C1114.275,466.481,1109.246,417.111,1103.01,367.856z M700.809,184.4&#xA;&#9;&#9;c-3.649-4.799-3.189-10.173-4.454-15.001c-1.437-5.403-2.644-10.834-4.167-16.179c-1.379-4.828-5.345-8.937-3.592-16.466&#xA;&#9;&#9;c12.299-2.471,23.88-1.264,35.318,3.276c12.415,4.971,15.978,7.328,20.432,14.627C729.948,164.486,715.522,174.342,700.809,184.4z&#xA;&#9;&#9; M748.339,335.154c-0.603,5.489-3.333,7.673-8.679,7.155c-8.305-0.833-14.455-4.54-18.133-12.529&#xA;&#9;&#9;c-5.92-12.788-6.552-25.72-2.529-39.053c0.718-2.414,1.667-4.799,2.5-7.184c-2.787-5.173-5.431-10.058-8.65-16.035&#xA;&#9;&#9;c3.132,0.517,5.46,0.287,6.954,1.293c3.937,2.644,7.96,5.345,11.092,8.822C745.638,294.003,750.754,313.515,748.339,335.154z&#xA;&#9;&#9; M776.789,427.342c1.178,7.213,2.471,14.426,3.65,21.639c0.316,2.012,0.374,4.052,0.747,8.276&#xA;&#9;&#9;c-2.845-2.845-4.914-3.937-5.345-5.489c-2.27-8.305-4.368-16.639-6.093-25.058c-1.465-7.184-3.017-13.937-7.184-20.403&#xA;&#9;&#9;c-3.333-5.202-4.339-12.041-5.833-18.277c-0.862-3.649,1.609-6.782,5.287-7.701c8.276-2.098,15.116,0.345,21.208,6.811&#xA;&#9;&#9;c-2.04,7.472-3.448,13.736-5.518,19.8C775.381,413.749,775.697,420.502,776.789,427.342z M892.196,302.221&#xA;&#9;&#9;c-0.057,14.311-4.656,26.869-15.518,36.841c-7.501,6.897-15.949,8.046-25.116,4.77c-8.305-2.96-11.897-9.196-10.863-18.133&#xA;&#9;&#9;c1.322-11.408,5.776-21.495,12.989-30.403c8.219-10.144,18.392-18.104,29.312-25.001c3.477-2.184,7.96-3.017,12.098-3.765&#xA;&#9;&#9;c1.666-0.316,3.707,1.264,6.38,2.299c-3.995,3.994-7.242,7.242-10.949,10.949C891.105,286.933,892.225,294.577,892.196,302.221z&#xA;&#9;&#9; M986.655,182.877c-9.483-4.023-16.725-10.949-25.289-15.719c-8.592-4.77-17.185-9.569-26.438-14.742&#xA;&#9;&#9;c0.172-10.748,1.925-21.351,6.006-32.76c2.787,2.414,4.771,3.879,6.437,5.632c13.047,13.708,24.369,28.852,35.577,44.054&#xA;&#9;&#9;C985.793,173.222,987.89,177.245,986.655,182.877z" style="fill: rgb(255, 210, 166);"/>
</g>
</svg>